<?xml version="1.0" standalone="no"?>
<!DOCTYPE svg PUBLIC "-//W3C//DTD SVG 20010904//EN"
 "http://www.w3.org/TR/2001/REC-SVG-20010904/DTD/svg10.dtd">
<svg version="1.0" xmlns="http://www.w3.org/2000/svg"
 width="700.000000pt" height="700.000000pt" viewBox="0 0 700.000000 700.000000"
 preserveAspectRatio="xMidYMid meet">
<metadata>
Created by potrace 1.14, written by Peter Selinger 2001-2017
</metadata>
<g transform="translate(0.000000,700.000000) scale(0.100000,-0.100000)"
fill="#000000" stroke="none">
<path d="M589 6985 c-144 -29 -269 -96 -373 -201 -77 -77 -124 -148 -163 -244
-56 -141 -53 30 -51 -3075 3 -2696 4 -2863 21 -2920 76 -259 270 -452 527
-522 62 -17 217 -18 2950 -18 3239 0 2929 -7 3095 75 189 93 325 261 382 470
17 62 18 217 18 2950 0 2733 -1 2888 -18 2950 -70 257 -263 451 -522 527 -57
17 -223 18 -2930 20 -2351 1 -2882 -1 -2936 -12z m1716 -1049 c313 -54 498
-200 560 -441 19 -75 19 -231 0 -312 -42 -179 -166 -329 -337 -411 -43 -20
-78 -40 -78 -43 0 -4 18 -19 40 -34 22 -16 55 -49 74 -74 47 -65 506 -777 506
-785 0 -11 -386 -7 -439 5 -30 6 -62 21 -79 37 -15 15 -119 176 -231 357 -112
182 -219 346 -237 365 l-34 35 -115 3 -115 4 0 -406 0 -406 -217 2 -218 3 -3
1050 c-1 578 0 1056 3 1064 8 20 791 9 920 -13z m1353 15 c36 -5 60 -15 76
-32 31 -31 649 -1210 700 -1334 l17 -39 34 78 c31 71 567 1106 640 1235 52 94
54 94 290 99 l205 5 0 -1067 0 -1066 -195 0 -196 0 3 735 c2 403 0 731 -3 727
-3 -4 -131 -245 -284 -537 -322 -615 -333 -634 -375 -658 -74 -44 -215 -30
-267 26 -17 18 -166 291 -333 607 -167 316 -303 576 -304 577 0 1 0 -331 2
-738 l3 -739 -196 0 -195 0 0 1065 0 1065 163 -1 c89 0 186 -4 215 -8z m-983
-2936 c363 -59 661 -292 789 -618 61 -155 70 -206 70 -422 0 -185 -2 -208 -26
-297 -116 -430 -453 -710 -910 -758 -51 -5 -288 -10 -525 -10 l-433 0 0 1060
0 1060 473 0 c366 0 492 -3 562 -15z m2289 -18 c307 -83 446 -249 446 -533 0
-185 -105 -340 -286 -421 -35 -15 -64 -30 -64 -33 0 -3 21 -12 47 -18 243 -65
380 -256 359 -499 -14 -151 -66 -262 -172 -370 -57 -57 -90 -80 -165 -117
-184 -88 -269 -98 -834 -94 l-430 3 -3 1058 -2 1058 502 -3 503 -4 99 -27z"/>
<path d="M1820 5286 l0 -336 133 0 c156 0 243 12 312 44 72 32 120 78 152 144
25 51 28 67 28 162 0 98 -2 109 -30 159 -34 62 -82 101 -164 132 -49 20 -80
23 -243 27 l-188 4 0 -336z"/>
<path d="M2080 1975 l0 -715 236 0 c181 0 252 4 307 16 172 39 311 149 385
304 54 114 72 191 79 340 15 343 -99 586 -331 701 -114 56 -194 68 -458 69
l-218 0 0 -715z"/>
<path d="M4300 2414 l0 -286 223 4 c182 4 231 8 274 22 65 23 118 66 145 119
44 86 32 261 -23 331 -29 37 -102 71 -180 85 -36 6 -150 11 -252 11 l-187 0 0
-286z"/>
<path d="M4300 1540 l0 -292 253 4 252 3 63 29 c111 51 162 136 162 271 0 88
-23 147 -75 193 -75 66 -124 76 -407 80 l-248 4 0 -292z"/>
</g>
</svg>
